<svg width="31" height="35" viewBox="0 0 31 35" fill="none" xmlns="http://www.w3.org/2000/svg">
<path d="M29.8573 16.2932C30.2123 16.2932 30.5001 16.0053 30.5001 15.6503V15.4832C30.5001 7.31724 23.8804 0.697449 15.7144 0.697449C7.5485 0.697449 0.928711 7.31724 0.928711 15.4832V26.7332C0.928711 27.0882 1.21653 27.376 1.57157 27.376H4.78585C4.78585 27.7311 5.07367 28.0189 5.42871 28.0189H8.103C8.45804 28.0189 8.74585 27.7311 8.74585 27.376V18.0546C8.74585 17.6996 8.45804 17.4117 8.103 17.4117H5.42871C5.07367 17.4117 4.78585 17.6996 4.78585 18.0546H4.683V15.7017C4.683 11.7606 6.78558 8.11881 10.1987 6.14824C13.6118 4.17766 17.817 4.17766 21.2301 6.14824C24.6433 8.11881 26.7459 11.7606 26.7459 15.7017V18.0546H26.643C26.643 17.6996 26.3552 17.4117 26.0001 17.4117H23.3259C22.9708 17.4117 22.683 17.6996 22.683 18.0546V27.376C22.683 27.7311 22.9708 28.0189 23.3259 28.0189H26.0001C26.3552 28.0189 26.643 27.7311 26.643 27.376V30.2303C26.6534 30.7484 26.4548 31.249 26.092 31.619C25.7291 31.9891 25.2327 32.1976 24.7144 32.1974H20.8573V31.4389C20.8573 31.0838 20.5695 30.796 20.2144 30.796H16.6016C16.2465 30.796 15.9587 31.0838 15.9587 31.4389V34.2417C15.9587 34.5968 16.2465 34.8846 16.6016 34.8846H20.2144C20.5695 34.8846 20.8573 34.5968 20.8573 34.2417V33.4832H24.7144C26.4896 33.4832 27.9287 32.0441 27.9287 30.2689V27.376H29.8573C30.2123 27.376 30.5001 27.0882 30.5001 26.7332V18.6974C30.5001 18.3424 30.2123 18.0546 29.8573 18.0546H28.0316V15.7017C28.0316 8.89916 22.517 3.38459 15.7144 3.38459C8.91186 3.38459 3.39728 8.89916 3.39728 15.7017V18.0546H2.21443V15.4832C2.21443 8.02732 8.25858 1.98316 15.7144 1.98316C23.1703 1.98316 29.2144 8.02732 29.2144 15.4832V15.6503C29.2144 15.8208 29.2822 15.9843 29.4027 16.1049C29.5233 16.2254 29.6868 16.2932 29.8573 16.2932ZM19.5716 33.5603H17.2444V32.0432H19.5716V33.5603ZM23.9687 26.7332V18.6974H25.3573V26.7332H23.9687ZM29.2144 26.0903H26.643V19.3403H29.2144V26.0903ZM7.46014 18.6974V26.7332H6.07157V18.6974H7.46014ZM4.78585 26.0903H2.21443V19.3403H4.78585V26.0903Z" fill="white"/>
<path d="M14.5446 11.382H11.3304C10.9782 11.3889 10.6943 11.6727 10.6875 12.0249C10.6875 12.3799 10.9753 12.6677 11.3304 12.6677H13.9018V14.5963H11.3304C10.9782 14.6031 10.6943 14.887 10.6875 15.2392V18.4534C10.6875 18.8085 10.9753 19.0963 11.3304 19.0963H14.5446C14.8997 19.0963 15.1875 18.8085 15.1875 18.4534C15.1875 18.0984 14.8997 17.8106 14.5446 17.8106H11.9732V15.882H14.5446C14.8997 15.882 15.1875 15.5942 15.1875 15.2392V12.0249C15.1875 11.6698 14.8997 11.382 14.5446 11.382ZM17.2061 11.382C16.851 11.382 16.5632 11.6698 16.5632 12.0249V15.2392C16.5632 15.5942 16.851 15.882 17.2061 15.882H19.7775V18.4534C19.7775 18.8085 20.0653 19.0963 20.4204 19.0963C20.7754 19.0963 21.0632 18.8085 21.0632 18.4534V12.0249C21.0564 11.6727 20.7725 11.3889 20.4204 11.382C20.0653 11.382 19.7775 11.6698 19.7775 12.0249V14.5963H17.8489V12.0249C17.8421 11.6727 17.5582 11.3889 17.2061 11.382Z" fill="white"/>
</svg>
