<svg width="33" height="32" viewBox="0 0 33 32" fill="none" xmlns="http://www.w3.org/2000/svg">
<path d="M28.5 17.3333C28.5 13.7778 27.8333 10.6667 27.1667 10.2222C26.7394 9.93737 24.6691 9.65252 21.8333 9.48468C20.2444 9.39064 23.1667 6.66666 16.5 6.66666C9.83333 6.66666 12.7556 9.39064 11.1667 9.48468C8.33088 9.65252 6.2606 9.93737 5.83333 10.2222C5.16667 10.6667 4.5 13.7778 4.5 17.3333C4.5 20.8889 5.16667 24 5.83333 24.4444C6.5 24.8889 11.1667 25.3333 16.5 25.3333C21.8333 25.3333 26.5 24.8889 27.1667 24.4444C27.8333 24 28.5 20.8889 28.5 17.3333Z" stroke="#2D3633" stroke-opacity="0.2" stroke-width="1.5" stroke-linecap="round" stroke-linejoin="round"/>
<path d="M16.5 21.3333C18.7091 21.3333 20.5 19.5425 20.5 17.3333C20.5 15.1242 18.7091 13.3333 16.5 13.3333C14.2909 13.3333 12.5 15.1242 12.5 17.3333C12.5 19.5425 14.2909 21.3333 16.5 21.3333Z" stroke="#2D3633" stroke-opacity="0.2" stroke-width="1.5" stroke-linecap="round" stroke-linejoin="round"/>
</svg>
