<svg width="19" height="22" viewBox="0 0 19 22" fill="none" xmlns="http://www.w3.org/2000/svg">
<path fill-rule="evenodd" clip-rule="evenodd" d="M0.685716 6.98482C0.326172 7.76655 0.326172 8.65588 0.326172 10.4345V15.9894C0.326172 18.4596 0.326172 19.6947 1.09355 20.4621C1.78987 21.1584 2.87129 21.2229 4.91113 21.2288V14.6795C4.91113 13.2325 6.08414 12.0595 7.53113 12.0595H11.4611C12.9081 12.0595 14.0811 13.2325 14.0811 14.6795V21.2288C16.121 21.2229 17.2025 21.1584 17.8988 20.4621C18.6662 19.6947 18.6662 18.4596 18.6662 15.9894V10.4345C18.6662 8.65588 18.6662 7.76655 18.3066 6.98482C17.9471 6.20309 17.2719 5.62432 15.9214 4.46678L14.6114 3.34392C12.1704 1.25169 10.95 0.205566 9.49617 0.205566C8.04237 0.205566 6.8219 1.25169 4.38095 3.34393L3.07095 4.46678C1.72049 5.62432 1.04526 6.20309 0.685716 6.98482ZM11.4611 21.2295V14.6795H7.53113V21.2295H11.4611Z" fill="white"/>
</svg>
