<svg width="26" height="26" viewBox="0 0 26 26" fill="none" xmlns="http://www.w3.org/2000/svg">
<path fill-rule="evenodd" clip-rule="evenodd" d="M2.85596 22.552V7.87999C2.85596 5.90386 2.85596 4.9158 3.46986 4.30189C4.08377 3.68799 5.07183 3.68799 7.04796 3.68799H17.528C18.3996 3.68799 19.0768 3.68799 19.6279 3.71635C17.2681 3.97522 15.432 5.97519 15.432 8.404V12.072H15.432L15.3284 22.5175L12.288 21.504L9.14396 22.552L5.99996 21.504L2.85596 22.552ZM22.768 12.072H17.528V8.404C17.528 6.95701 18.701 5.784 20.148 5.784C21.595 5.784 22.768 6.95701 22.768 8.404V12.072ZM4.95196 7.87998C4.95196 7.30119 5.42116 6.83198 5.99996 6.83198H12.288C12.8668 6.83198 13.336 7.30119 13.336 7.87998C13.336 8.45877 12.8668 8.92798 12.288 8.92798H5.99996C5.42116 8.92798 4.95196 8.45877 4.95196 7.87998ZM4.95196 12.072C4.95196 11.4932 5.42116 11.024 5.99996 11.024H8.09596C8.67475 11.024 9.14396 11.4932 9.14396 12.072C9.14396 12.6508 8.67475 13.12 8.09596 13.12H5.99996C5.42116 13.12 4.95196 12.6508 4.95196 12.072ZM4.95196 16.264C4.95196 15.6852 5.42116 15.216 5.99996 15.216H10.192C10.7708 15.216 11.24 15.6852 11.24 16.264C11.24 16.8428 10.7708 17.312 10.192 17.312H5.99996C5.42116 17.312 4.95196 16.8428 4.95196 16.264Z" fill="#2F4C68"/>
</svg>
