<svg width="20" height="23" viewBox="0 0 20 23" fill="none" xmlns="http://www.w3.org/2000/svg">
<path fill-rule="evenodd" clip-rule="evenodd" d="M10.3466 0.126221C9.6419 0.126221 9.03262 0.588148 7.81404 1.512L6.18698 2.74556C5.99743 2.88926 5.90265 2.96111 5.80059 3.02168C5.69853 3.08224 5.59006 3.131 5.37311 3.22852L5.3731 3.22853L3.41896 4.10694C2.07859 4.70946 1.4084 5.01072 1.07 5.60187C0.731591 6.19302 0.811166 6.92348 0.970316 8.3844L1.21887 10.666C1.24357 10.8927 1.25592 11.0061 1.25592 11.1199C1.25592 11.2338 1.24357 11.3472 1.21887 11.5739L0.970316 13.8555C0.811166 15.3164 0.731591 16.0469 1.07 16.638C1.4084 17.2292 2.07859 17.5304 3.41896 18.1329L5.3731 19.0114L5.37315 19.0114C5.59007 19.1089 5.69854 19.1576 5.80059 19.2182C5.90265 19.2788 5.99743 19.3506 6.18698 19.4943L7.81404 20.7279C9.03262 21.6517 9.6419 22.1137 10.3466 22.1137C11.0513 22.1137 11.6606 21.6517 12.8792 20.7279L14.5063 19.4943C14.6958 19.3506 14.7906 19.2788 14.8927 19.2182C14.9947 19.1576 15.1032 19.1089 15.3201 19.0114L15.3201 19.0114L17.2743 18.1329C18.6147 17.5304 19.2848 17.2292 19.6232 16.638C19.9617 16.0469 19.8821 15.3164 19.7229 13.8555L19.4744 11.5739L19.4744 11.5739C19.4497 11.3471 19.4373 11.2338 19.4373 11.1199C19.4373 11.0061 19.4497 10.8927 19.4744 10.666L19.4744 10.666L19.7229 8.3844C19.8821 6.92348 19.9617 6.19302 19.6232 5.60187C19.2848 5.01072 18.6147 4.70946 17.2743 4.10694L15.3201 3.22853C15.1032 3.13101 14.9947 3.08225 14.8927 3.02168C14.7906 2.96111 14.6958 2.88926 14.5063 2.74556L12.8792 1.512C11.6606 0.588148 11.0513 0.126221 10.3466 0.126221ZM10.3466 15.3119C12.5975 15.3119 14.4222 13.4351 14.4222 11.1199C14.4222 8.80476 12.5975 6.92794 10.3466 6.92794C8.09574 6.92794 6.27105 8.80476 6.27105 11.1199C6.27105 13.4351 8.09574 15.3119 10.3466 15.3119Z" fill="#2F4C68"/>
</svg>
